<?xml version="1.0" standalone="no"?><!DOCTYPE svg PUBLIC "-//W3C//DTD SVG 1.1//EN" "http://www.w3.org/Graphics/SVG/1.1/DTD/svg11.dtd"><svg t="1589181098604" class="icon" viewBox="0 0 1024 1024" version="1.1" xmlns="http://www.w3.org/2000/svg" p-id="991" xmlns:xlink="http://www.w3.org/1999/xlink" width="200" height="200"><defs><style type="text/css"></style></defs><path d="M362.7008 194.69824h298.7008c20.50048 0 37.2992-16.79872 37.2992-37.2992v-74.7008H586.7008v-13.70112a23.63904 23.63904 0 0 0-23.59808-23.59808H460.9024a23.63904 23.63904 0 0 0-23.59808 23.59808v13.70112H325.2992v74.7008c0 20.50048 16.79872 37.2992 37.4016 37.2992z" fill="#386ACC" p-id="992"></path><path d="M848.1024 82.69824h-74.79808V213.2992c0 30.80192-25.20064 56.09984-56.09984 56.09984H306.80064c-30.80192 0-56.09984-25.20064-56.09984-56.09984V82.69824h-74.8032c-41.00096 0-74.5984 33.60256-74.5984 74.5984v746.79808c0 41.00096 33.60256 74.5984 74.5984 74.5984h672.19968c41.00096 0 74.5984-33.60256 74.5984-74.5984V157.30176c0.00512-41.10336-33.59744-74.60352-74.59328-74.60352zM512 876.00128c-144.30208 0-261.2992-117.00224-261.2992-261.2992S367.69792 353.39776 512 353.39776s261.2992 117.00224 261.2992 261.2992-116.99712 261.30432-261.2992 261.30432z" fill="#386ACC" p-id="993"></path><path d="M661.2992 577.30048h-112V453.89824c0-19.39968-15.8976-35.3024-35.3024-35.3024h-4.096c-19.39968 0-35.3024 15.8976-35.3024 35.3024v162.80064c0 19.39968 15.8976 35.3024 35.3024 35.3024h151.5008c20.50048 0 37.2992-16.79872 37.2992-37.2992 0-20.60288-16.79872-37.4016-37.4016-37.4016z" fill="#386ACC" p-id="994"></path></svg>