<?xml version="1.0" encoding="UTF-8"?>
<svg width="100px" height="100px" viewBox="0 0 100 100" version="1.1" xmlns="http://www.w3.org/2000/svg" xmlns:xlink="http://www.w3.org/1999/xlink">
    <!-- Generator: Sketch 61 (89581) - https://sketch.com -->
    <title>编组</title>
    <desc>Created with Sketch.</desc>
    <g id="页面-1" stroke="none" stroke-width="1" fill="none" fill-rule="evenodd">
        <g id="Apple-TV备份-3" transform="translate(-1730.000000, -895.000000)">
            <g id="编组" transform="translate(1730.000000, 895.000000)">
                <circle id="椭圆形" fill="#27A193" cx="50" cy="50" r="50"></circle>
                <path d="M63.9240676,37.0011322 L38.079213,37.0011322 C37.261191,36.994512 36.4747503,37.3165469 35.8963057,37.8949979 C35.317861,38.4734489 34.9958347,39.2598931 35.0024638,40.077915 L35.0024638,59.6461717 C34.968963,60.4832805 35.2782681,61.297853 35.8589403,61.9017514 C36.4396125,62.5056497 37.2414343,62.8466477 38.079213,62.8459868 L43.3713171,62.8459868 L43.3713171,67.2765958 C43.3611299,67.7366087 43.5393855,68.1808019 43.8647435,68.5061598 C44.1901014,68.8315178 44.6342946,69.0097733 45.0943074,68.9995861 C45.5455248,68.9664954 45.975429,68.7945102 46.3249667,68.5072551 L51.986235,62.8459868 L63.8010017,62.8459868 C64.6190236,62.852616 65.4054678,62.5305896 65.9839188,61.952145 C66.5623698,61.3737003 66.8846109,60.5872596 66.8777845,59.7692377 L66.8777845,40.077915 C66.9336458,39.2676102 66.6447331,38.4713926 66.0822388,37.8854621 C65.5197446,37.2995317 64.7359768,36.9783758 63.9240676,37.0011322 L63.9240676,37.0011322 Z M54.8168523,55.2156637 L41.5251599,55.2156637 C40.6415461,55.2156637 39.9252356,54.4993531 39.9252356,53.6157393 C39.9252356,52.7321255 40.6415461,52.0158149 41.5251599,52.0158149 L54.8168187,52.0158149 C55.7004325,52.0158149 56.4167431,52.7321255 56.4167431,53.6157393 C56.4167431,54.4993531 55.7004325,55.2156637 54.8168187,55.2156637 L54.8168523,55.2156637 Z M60.4780533,47.8313714 L41.5251599,47.8313714 C41.0967486,47.8451941 40.6817241,47.6810729 40.3786371,47.3779795 C40.07555,47.074886 39.9114375,46.6598582 39.9252692,46.231447 C39.9384677,45.3533714 40.6470845,44.6447396 41.5251599,44.6315227 L60.4780533,44.6315227 C61.3561419,44.6447216 62.0647787,45.3533585 62.0779777,46.231447 C62.0918099,46.6598642 61.9276929,47.0748976 61.6245984,47.3779921 C61.3215038,47.6810866 60.9064705,47.8452036 60.4780533,47.8313714 L60.4780533,47.8313714 Z" id="形状" fill="#FFFFFF" fill-rule="nonzero"></path>
            </g>
        </g>
    </g>
</svg>