<?xml version="1.0" standalone="no"?><!DOCTYPE svg PUBLIC "-//W3C//DTD SVG 1.1//EN" "http://www.w3.org/Graphics/SVG/1.1/DTD/svg11.dtd"><svg class="icon" width="200px" height="200.00px" viewBox="0 0 1024 1024" version="1.1" xmlns="http://www.w3.org/2000/svg"><path d="M750.6944 405.76c-1.7408-7.0656-5.1712-12.288-8.6528-19.3536l-5.1712-8.7552c12.0832-17.5616 18.9952-35.1232 18.9952-54.4768V212.5312c0-15.8208-3.4304-29.8496-12.0832-45.6704l-1.7408-5.2736c3.4816-8.7552 5.1712-15.8208 5.1712-24.576C747.2128 47.4112 556.9536 0 378.88 0 200.6528 0 10.3936 47.4112 10.3936 137.0112c0 8.7552 1.6896 17.5616 5.1712 24.576L13.824 166.912a90.4704 90.4704 0 0 0-12.0832 45.6704v110.6432c0 19.3536 6.912 38.656 18.9952 54.4768l-5.1712 8.7552c-8.6528 15.8208-13.824 31.6416-13.824 47.4112v110.6944c0 19.3024 6.912 36.864 17.3056 54.4256l-5.2224 7.0144c-8.6528 15.872-13.824 31.6416-13.824 47.4624v110.592c0 98.4064 166.0416 175.6672 377.088 175.6672 43.2128 0 84.736-3.4816 122.7776-8.7552-1.6896-3.5328-5.1712-7.0144-6.912-10.5472A301.2608 301.2608 0 0 0 719.5648 1024C887.296 1024 1024 885.248 1024 714.8544c1.6896-161.5872-119.3472-293.3248-273.3056-309.0944z m-370.176-342.528c193.7408 0 311.3472 49.152 311.3472 84.3264 0 35.1232-119.296 84.2752-311.296 84.2752-193.7408 0-311.3984-49.152-311.3984-84.2752 0-35.1232 119.3472-84.3264 311.3472-84.3264zM62.2592 230.0928C119.3472 282.8288 250.88 309.1456 378.88 309.1456s259.4304-26.368 316.5184-79.0528v91.3408c0 63.232-129.7408 133.4784-316.5184 133.4784-186.88 0-316.5696-70.2464-316.5696-133.4784V230.0928z m3.4816 210.7904c58.7776 57.9584 178.176 94.8224 318.2592 94.8224 32.8704 0 64-3.4816 95.1296-7.0144a294.7584 294.7584 0 0 0-50.176 114.176c-1.7408 10.5472-5.1712 22.8352-5.1712 35.1232-12.1344 0-25.9584 1.7408-38.0416 1.7408-186.8288 0-318.2592-70.2464-318.2592-133.4784l-1.7408-105.3696z m316.5184 430.2848c-188.5184 0-320-57.9584-320-112.384v-86.0672c58.8288 47.4112 179.9168 79.0528 320 79.0528 13.824 0 25.9584 0 39.7824-1.792 5.1712 31.6416 15.5648 61.4912 31.1296 87.8592 5.2224 10.496 12.1344 19.3024 20.7872 28.1088-29.44 3.4816-58.8288 5.2224-91.648 5.2224z m339.0464 89.6a238.592 238.592 0 0 1-178.176-79.0528 273.0496 273.0496 0 0 1-27.648-35.1232 250.1632 250.1632 0 0 1-38.0928-133.4784v-1.7408c0-14.08 1.7408-28.16 3.4816-42.1888 1.7408-12.288 5.1712-24.576 8.6528-36.864a243.6096 243.6096 0 0 1 198.912-165.12c10.3424-1.7408 20.736-1.7408 31.1296-1.7408h8.6528c129.6896 5.2736 235.2128 114.176 235.2128 247.6544 1.7408 137.0112-107.2128 247.6544-242.176 247.6544z" fill="#FFFFFF" /><path d="M917.8112 647.5264l-30.208-29.44a15.616 15.616 0 0 0-20.1216 0l-164.5056 160.256-85.6576-83.4048a15.616 15.616 0 0 0-20.1216 0l-30.208 29.4912a14.6432 14.6432 0 0 0 0 19.6096l124.2112 122.6752c5.0176 4.9152 13.4144 4.9152 20.1216 0l206.4896-199.5776c5.0688-6.5024 5.0688-14.6944 0-19.6096" fill="#FFFFFF" /></svg>