<?xml version="1.0" standalone="no"?><!DOCTYPE svg PUBLIC "-//W3C//DTD SVG 1.1//EN" "http://www.w3.org/Graphics/SVG/1.1/DTD/svg11.dtd"><svg class="icon" width="200px" height="200.00px" viewBox="0 0 1024 1024" version="1.1" xmlns="http://www.w3.org/2000/svg"><path d="M705.5 136.5h-391c-108 0-195.5 87.5-195.5 195.3v293.9c1.5 69 42 113.6 85.5 161.2l80.3 80.3c11.6 8.9 19 12 29.7 11.8 10.7 0.3 21.5-3.6 29.7-11.8l46.2-46.2h315.1c108 0 195.5-87.5 195.5-195.3V331.8c0-107.8-87.5-195.3-195.5-195.3z m-20.6 360.6c-1.5 7.7-5.2 15.1-11.1 21L520.2 671.7c-15.8 15.8-41.5 15.8-57.3 0-15.8-15.8-15.8-41.5 0-57.3l87-87H353.6c-19.2 0-35.1-13.9-38.4-32.1-2.9-13 0.7-27.2 10.8-37.3l153.6-153.6c15.8-15.8 41.5-15.8 57.3 0 15.8 15.8 15.8 41.4 0 57.3l-87.6 87.6h192.5c4-0.3 8.1-0.2 12 0.7 18.2 3.3 32.1 19.2 32.1 38.4 0.1 3-0.4 5.9-1 8.7z" fill="#FFFFFF" /></svg>