<?xml version="1.0" encoding="UTF-8"?>
<svg width="1325px" height="512px" viewBox="0 0 1325 512" version="1.1" xmlns="http://www.w3.org/2000/svg" xmlns:xlink="http://www.w3.org/1999/xlink">
    <title>Group</title>
    <defs>
        <linearGradient x1="50%" y1="0%" x2="50%" y2="100%" id="linearGradient-1">
            <stop stop-color="#CA2A37" offset="0%"></stop>
            <stop stop-color="#9D212B" offset="100%"></stop>
        </linearGradient>
    </defs>
    <g id="Page-1" stroke="none" stroke-width="1" fill="none" fill-rule="evenodd">
        <g id="Group">
            <g id="Group-2">
                <circle id="Oval" fill="url(#linearGradient-1)" cx="256" cy="256" r="256"></circle>
                <path d="M233.516099,424 L267.925069,390.203509 C271.726441,381.819883 274.282536,376.51462 275.593354,374.287719 L275.593354,374.287719 L284.637998,358.37193 C290.143433,348.809357 293.354937,343.307602 294.272509,341.866667 L294.272509,341.866667 L310.395569,316.519298 L332.613933,282.329825 C364.204644,232.159064 380,197.380117 380,177.992982 C380,162.666667 373.44591,151.335673 360.337731,144 L360.337731,144 L331.434197,175.831579 C341.396413,181.464327 346.377521,190.437427 346.377521,202.750877 C346.377521,234.320468 317.73615,290.189474 260.453407,370.357895 C253.506072,333.94152 244.133724,292.481871 232.336363,245.978947 C221.718738,204.584795 212.34639,177.239766 204.219319,163.94386 C196.092248,150.647953 184.688133,144 170.006972,144 C152.179849,144 137.498688,153.169591 125.963491,171.508772 C116.39452,186.704094 111.413412,198.362573 111.020166,206.484211 C110.758003,210.676023 113.051934,213.295906 117.90196,214.34386 C125.504704,188.145029 137.891933,175.045614 155.063648,175.045614 C165.025864,175.045614 173.120165,181.693567 179.34655,194.989474 C185.572935,208.28538 194.388185,237.39883 205.792301,282.329825 C219.031562,335.120468 228.272828,382.34386 233.516099,424 L233.516099,424 Z" id="V" fill="#0E0E0E" fill-rule="nonzero"></path>
            </g>
            <path d="M735.905013,329.317942 L775.28496,182.879947 L747.184697,182.879947 L714.434037,306.659631 L682.1781,182.879947 L652,182.879947 L691.379947,329.317942 L735.905013,329.317942 Z M861.861478,329.317942 L861.861478,303.592348 L815.654354,303.592348 L838.21372,270.643799 C844.6781,261.343008 849.246042,252.866755 851.917546,245.21504 C854.58905,237.563325 855.924802,230.076517 855.924802,222.754617 C855.924802,208.242744 851.719657,197.655673 843.309367,190.993404 C834.899077,184.331135 822.844327,181 807.145119,181 C801.934037,181 796.426121,181.461741 790.621372,182.385224 C784.816623,183.308707 780.001319,184.529024 776.175462,186.046174 L776.175462,186.046174 L776.175462,210.782322 C784.288918,207.418206 793.16095,205.736148 802.791557,205.736148 C811.036939,205.736148 817.105541,207.319261 820.997361,210.485488 C824.889182,213.651715 826.835092,218.598945 826.835092,225.327177 C826.835092,230.472296 825.631266,235.996702 823.223615,241.900396 C820.815963,247.80409 816.907652,254.779683 811.498681,262.827177 L811.498681,262.827177 L778.055409,312.794195 L778.055409,329.317942 L861.861478,329.317942 Z M946.854881,331 C956.485488,331 966.940633,330.076517 978.220317,328.229551 L978.220317,328.229551 L978.220317,258.077836 L950.911609,258.077836 L950.911609,305.967018 C947.745383,306.098945 945.370712,306.164908 943.787599,306.164908 C934.75066,306.164908 927.296834,304.581794 921.426121,301.415567 C915.555409,298.24934 911.102902,293.021768 908.068602,285.73285 C905.034301,278.443931 903.51715,268.730871 903.51715,256.593668 C903.51715,243.92876 905.116755,233.902375 908.315963,226.514512 C911.515172,219.126649 916.379947,213.849604 922.91029,210.683377 C929.440633,207.51715 937.98285,205.934037 948.536939,205.934037 C957.046174,205.934037 965.852243,207.121372 974.955145,209.496042 L974.955145,209.496042 L974.955145,184.66095 C966.050132,182.220317 956.221636,181 945.469657,181 C921.722955,181 903.682058,187.101583 891.346966,199.304749 C879.011873,211.507916 872.844327,230.472296 872.844327,256.197889 C872.844327,282.121372 878.978892,301.069261 891.248021,313.041557 C903.51715,325.013852 922.05277,331 946.854881,331 Z M1016.61082,329.317942 L1026.80211,289.937995 L1072.11873,289.937995 L1082.31003,329.317942 L1111.30079,329.317942 L1071.42612,182.879947 L1027.8905,182.879947 L988.015831,329.317942 L1016.61082,329.317942 Z M1065.58839,265.003958 L1033.23351,265.003958 L1049.36148,202.273087 L1065.58839,265.003958 Z M1181.84828,329.317942 L1181.84828,208.902375 L1222.31662,208.902375 L1222.31662,182.879947 L1111.9934,182.879947 L1111.9934,208.902375 L1152.46174,208.902375 L1152.46174,329.317942 L1181.84828,329.317942 Z M1324.03166,329.317942 L1324.03166,304.087071 L1262.58707,304.087071 L1262.58707,267.081794 L1313.14776,267.081794 L1313.14776,241.850923 L1262.58707,241.850923 L1262.58707,208.110818 L1323.04222,208.110818 L1323.04222,182.879947 L1233.69525,182.879947 L1233.69525,329.317942 L1324.03166,329.317942 Z" id="V2GATE" fill="#FFFFFF" fill-rule="nonzero"></path>
        </g>
    </g>
</svg>