<?xml version="1.0" encoding="UTF-8"?>
<svg width="20px" height="20px" viewBox="0 0 20 20" version="1.1" xmlns="http://www.w3.org/2000/svg" xmlns:xlink="http://www.w3.org/1999/xlink">
    <!-- Generator: Sketch 61 (89581) - https://sketch.com -->
    <title>形状</title>
    <desc>Created with Sketch.</desc>
    <g id="页面-1" stroke="none" stroke-width="1" fill="none" fill-rule="evenodd" opacity="0.7">
        <g id="画板" transform="translate(-1258.000000, -3678.000000)" fill="#FFFFFF" fill-rule="nonzero">
            <path d="M1268,3678 C1262.47715,3678 1258,3682.47715 1258,3688 C1258,3693.52285 1262.47715,3698 1268,3698 C1273.52285,3698 1278,3693.52285 1278,3688 C1278,3685.34784 1276.94643,3682.8043 1275.07107,3680.92893 C1273.1957,3679.05357 1270.65216,3678 1268,3678 Z M1267.87389,3694.65777 C1267.04204,3694.61408 1266.60463,3694.22056 1266.56166,3693.47723 C1266.5765,3692.76328 1267.1595,3692.19226 1267.8736,3692.19226 C1268.5877,3692.19226 1269.17071,3692.76328 1269.18555,3693.47723 C1269.14111,3694.2213 1268.70389,3694.61482 1267.87389,3694.65777 L1267.87389,3694.65777 Z M1269.05555,3689.41109 L1269.05555,3690 C1269.07149,3690.31772 1268.95224,3690.62735 1268.7273,3690.8523 C1268.50235,3691.07724 1268.19272,3691.19649 1267.875,3691.18055 C1267.5569,3691.19752 1267.24655,3691.07864 1267.02119,3690.8535 C1266.79584,3690.62835 1266.67666,3690.31812 1266.69334,3690 L1266.69334,3688.36166 C1266.69334,3688.0124 1267.06482,3687.72814 1267.80779,3687.50889 C1267.86849,3687.47429 1267.93558,3687.45236 1268.005,3687.44443 C1268.96574,3687.22666 1269.42463,3686.74518 1269.38166,3686 C1269.3261,3685.28515 1268.72183,3684.73819 1268.005,3684.75391 C1267.37055,3684.8132 1266.79451,3685.14918 1266.43055,3685.67223 C1266.1518,3686.06369 1265.72545,3686.32452 1265.25,3686.39445 C1264.63703,3686.35185 1264.30907,3685.95833 1264.26611,3685.21389 C1264.44055,3683.63981 1265.68685,3682.72167 1268.005,3682.45945 C1270.53982,3682.635 1271.87315,3683.81555 1272.005,3686.00111 C1272.00536,3687.75001 1271.02221,3688.88667 1269.05555,3689.41111 L1269.05555,3689.41109 Z" id="形状"></path>
        </g>
    </g>
</svg>