<?xml version="1.0" standalone="no"?><!DOCTYPE svg PUBLIC "-//W3C//DTD SVG 1.1//EN" "http://www.w3.org/Graphics/SVG/1.1/DTD/svg11.dtd"><svg class="icon" width="200px" height="200.00px" viewBox="0 0 1024 1024" version="1.1" xmlns="http://www.w3.org/2000/svg"><path d="M566.186667 607.146667c-45.44-39.04-41.173333-56.32-99.626667-56.32s-95.36 13.013333-80.213333 95.36 58.453333 45.44 54.186666 106.666666 10.88 75.733333 19.413334 90.88 39.04 58.453333 49.706666-2.133333a260.906667 260.906667 0 0 1 54.186667-125.653333c23.893333-30.293333 47.573333-69.333333 2.133333-108.16zM405.333333 464.426667c2.133333-30.293333 52.053333-62.72 86.613334-77.866667s64-19.413333 60.586666-45.44-13.013333-45.44-64-45.44-30.293333 71.466667-73.6 28.16 8.746667-30.293333 30.293334-41.173333 42.666667-49.706667 6.613333-52.053334-30.293333 17.28-60.586667 6.613334-42.666667 38.826667-62.72 30.293333A289.92 289.92 0 0 1 258.773333 213.333333a357.333333 357.333333 0 0 0-103.893333 140.8 179.84 179.84 0 0 0 45.44 110.506667s19.413333 47.573333 142.933333 106.666667c0 0 23.893333 2.133333-4.266666-26.026667s-56.32-60.586667-23.893334-77.866667 42.666667-17.28 52.053334 17.28 36.906667 13.013333 39.04-19.413333zM899.626667 475.093333a19.2 19.2 0 0 0-2.133334-10.88 66.346667 66.346667 0 0 0-4.266666-23.893333c0-4.266667-2.133333-8.746667-2.133334-13.013333-2.133333-8.746667-4.266667-15.146667-6.613333-23.893334 0-4.266667-2.133333-6.613333-2.133333-10.88-4.266667-10.88-6.613333-21.333333-10.88-30.293333l-6.613334-13.013333c-2.133333-6.613333-6.613333-10.88-8.746666-17.28s-6.613333-10.88-8.746667-15.146667a45.013333 45.013333 0 0 0-8.746667-13.013333c-4.266667-4.266667-6.613333-10.88-10.88-15.146667s-4.266667-6.613333-6.613333-8.746667a421.333333 421.333333 0 0 0-52.053333-56.32c-2.133333 0-2.133333-2.133333-4.266667-2.133333a188.8 188.8 0 0 0-21.333333-17.28h-2.133334A306.986667 306.986667 0 0 0 640 148.266667a169.173333 169.173333 0 0 1-34.56 47.573333 27.306667 27.306667 0 0 0 19.413333 49.706667s-10.88 10.88 0 49.706666 28.16 47.573333 82.346667 26.026667c23.893333-8.746667 41.173333-4.266667 39.04 19.413333-6.613333 49.706667-42.666667 47.573333-15.146667 128 17.28 49.706667 60.586667 67.2 77.866667 106.666667 8.746667 21.333333 42.666667 39.04 71.466667 54.186667 2.133333-10.88 6.613333-21.333333 8.746666-30.293334 0-4.266667 2.133333-8.746667 2.133334-13.013333 2.133333-8.746667 2.133333-15.146667 4.266666-23.893333a19.2 19.2 0 0 1 2.133334-10.88c0-10.88 2.133333-23.893333 2.133333-34.56a129.706667 129.706667 0 0 0 0-41.173334zM752.213333 602.88a25.386667 25.386667 0 0 0-2.133333 41.173333c13.013333 10.88 39.04 26.026667 47.573333 0s-29.653333-49.92-45.44-41.173333z"  /><path d="M512 64A448 448 0 1 1 64 512 448 448 0 0 1 512 64m0-64a512 512 0 1 0 0 1024 512 512 0 1 0 0-1024z"  /></svg>