<?xml version="1.0" encoding="UTF-8"?>
<svg width="64px" height="64px" viewBox="0 0 64 64" version="1.1" xmlns="http://www.w3.org/2000/svg" xmlns:xlink="http://www.w3.org/1999/xlink">
    <!-- Generator: Sketch 61 (89581) - https://sketch.com -->
    <title>形状备份 5</title>
    <desc>Created with Sketch.</desc>
    <g id="页面-1" stroke="none" stroke-width="1" fill="none" fill-rule="evenodd">
        <g id="画板" transform="translate(-928.000000, -1280.000000)" fill="#2B65D6" fill-rule="nonzero">
            <g id="编组-8" transform="translate(289.000000, 1050.000000)">
                <g id="编组-4" transform="translate(491.000000, 230.000000)">
                    <path d="M179.965848,0 C162.309498,0 148,14.3436499 148,32 C148,49.6563501 162.309498,64 180,64 C197.690502,64 212,49.6905016 212,32 C212,14.3094984 197.65635,0 179.965848,0 Z M197.451441,27.0821772 L172.076841,52.4567769 C171.803629,52.7299893 171.39381,52.9007471 171.018143,52.9007471 C170.744931,52.9007471 170.471718,52.832444 170.232657,52.6616862 C169.652081,52.2860192 169.378869,51.5346852 169.61793,50.8858058 L174.877268,36.4738527 L163.538954,36.4738527 C162.924226,36.4738527 162.377801,36.0981857 162.172892,35.5517609 C161.933831,35.0053362 162.070438,34.3564568 162.480256,33.9124867 L184.883671,11.5432231 C185.361793,11.0651014 186.078975,10.9626467 186.659552,11.3041622 C187.240128,11.6115261 187.547492,12.2945571 187.410886,12.9434365 L184.815368,24.5549626 L196.392743,24.5549626 C197.007471,24.5549626 197.553895,24.9306297 197.758805,25.4770544 C197.997866,26.0234792 197.895411,26.6723586 197.451441,27.0821772 Z" id="形状备份-5"></path>
                </g>
            </g>
        </g>
    </g>
</svg>