<?xml version="1.0" encoding="UTF-8"?>
<svg width="512px" height="512px" viewBox="0 0 512 512" version="1.1" xmlns="http://www.w3.org/2000/svg" xmlns:xlink="http://www.w3.org/1999/xlink">
    <title>Group 2</title>
    <defs>
        <linearGradient x1="50%" y1="0%" x2="50%" y2="100%" id="linearGradient-1">
            <stop stop-color="#CA2A37" offset="0%"></stop>
            <stop stop-color="#9D212B" offset="100%"></stop>
        </linearGradient>
    </defs>
    <g id="Page-1" stroke="none" stroke-width="1" fill="none" fill-rule="evenodd">
        <g id="Group-2">
            <circle id="Oval" fill="url(#linearGradient-1)" cx="256" cy="256" r="256"></circle>
            <path d="M233.516099,424 L267.925069,390.203509 C271.726441,381.819883 274.282536,376.51462 275.593354,374.287719 L275.593354,374.287719 L284.637998,358.37193 C290.143433,348.809357 293.354937,343.307602 294.272509,341.866667 L294.272509,341.866667 L310.395569,316.519298 L332.613933,282.329825 C364.204644,232.159064 380,197.380117 380,177.992982 C380,162.666667 373.44591,151.335673 360.337731,144 L360.337731,144 L331.434197,175.831579 C341.396413,181.464327 346.377521,190.437427 346.377521,202.750877 C346.377521,234.320468 317.73615,290.189474 260.453407,370.357895 C253.506072,333.94152 244.133724,292.481871 232.336363,245.978947 C221.718738,204.584795 212.34639,177.239766 204.219319,163.94386 C196.092248,150.647953 184.688133,144 170.006972,144 C152.179849,144 137.498688,153.169591 125.963491,171.508772 C116.39452,186.704094 111.413412,198.362573 111.020166,206.484211 C110.758003,210.676023 113.051934,213.295906 117.90196,214.34386 C125.504704,188.145029 137.891933,175.045614 155.063648,175.045614 C165.025864,175.045614 173.120165,181.693567 179.34655,194.989474 C185.572935,208.28538 194.388185,237.39883 205.792301,282.329825 C219.031562,335.120468 228.272828,382.34386 233.516099,424 L233.516099,424 Z" id="V" fill="#0E0E0E" fill-rule="nonzero"></path>
        </g>
    </g>
</svg>