<?xml version="1.0" encoding="UTF-8"?>
<svg width="20px" height="20px" viewBox="0 0 20 20" version="1.1" xmlns="http://www.w3.org/2000/svg" xmlns:xlink="http://www.w3.org/1999/xlink">
    <!-- Generator: Sketch 61 (89581) - https://sketch.com -->
    <title>形状</title>
    <desc>Created with Sketch.</desc>
    <g id="页面-1" stroke="none" stroke-width="1" fill="none" fill-rule="evenodd" opacity="0.7">
        <g id="画板" transform="translate(-1001.000000, -3678.000000)" fill="#FFFFFF" fill-rule="nonzero">
            <path d="M1014.2701,3692.58705 L1015.91072,3684.85268 C1015.97768,3684.52529 1015.93861,3684.29092 1015.79354,3684.14955 C1015.64846,3684.00818 1015.45686,3683.98214 1015.21875,3684.07143 L1005.5759,3687.78795 C1005.36012,3687.8698 1005.21316,3687.96281 1005.13504,3688.06697 C1005.05691,3688.17114 1005.04762,3688.26972 1005.10715,3688.36271 C1005.16668,3688.45571 1005.28572,3688.52826 1005.46428,3688.58035 L1007.9308,3689.35045 L1013.65625,3685.74551 C1013.8125,3685.64134 1013.93155,3685.61902 1014.0134,3685.67855 C1014.06548,3685.71576 1014.0506,3685.77156 1013.96875,3685.84596 L1009.33705,3690.03125 L1009.15848,3692.5759 C1009.32961,3692.5759 1009.49702,3692.49405 1009.66072,3692.33035 L1010.86607,3691.16965 L1013.36607,3693.01115 C1013.84226,3693.27902 1014.1436,3693.13765 1014.2701,3692.58705 L1014.2701,3692.58705 Z M1021,3688 C1021,3689.35417 1020.73587,3690.64881 1020.2076,3691.88393 C1019.67933,3693.11904 1018.96876,3694.18303 1018.0759,3695.0759 C1017.18303,3695.96876 1016.11904,3696.67933 1014.88393,3697.2076 C1013.64881,3697.73587 1012.35417,3698 1011,3698 C1009.64583,3698 1008.35119,3697.73587 1007.11607,3697.2076 C1005.88096,3696.67933 1004.81697,3695.96876 1003.9241,3695.0759 C1003.03124,3694.18303 1002.32067,3693.11904 1001.7924,3691.88393 C1001.26413,3690.64881 1001,3689.35417 1001,3688 C1001,3686.64583 1001.26413,3685.35119 1001.7924,3684.11607 C1002.32067,3682.88096 1003.03124,3681.81697 1003.9241,3680.9241 C1004.81697,3680.03124 1005.88096,3679.32067 1007.11607,3678.7924 C1008.35119,3678.26413 1009.64583,3678 1011,3678 C1012.35417,3678 1013.64881,3678.26413 1014.88393,3678.7924 C1016.11904,3679.32067 1017.18303,3680.03124 1018.0759,3680.9241 C1018.96876,3681.81697 1019.67933,3682.88096 1020.2076,3684.11607 C1020.73587,3685.35119 1021,3686.64583 1021,3688 Z" id="形状"></path>
        </g>
    </g>
</svg>