<?xml version="1.0" standalone="no"?><!DOCTYPE svg PUBLIC "-//W3C//DTD SVG 1.1//EN" "http://www.w3.org/Graphics/SVG/1.1/DTD/svg11.dtd"><svg class="icon" width="200px" height="200.00px" viewBox="0 0 1024 1024" version="1.1" xmlns="http://www.w3.org/2000/svg"><path d="M746.665 0h-568.32c-42.414 0-76.8 34.386-76.8 76.8v870.4c0 42.414 34.386 76.8 76.8 76.8h670.72c42.414 0 76.8-34.386 76.8-76.8V220.16L746.665 0zM847.36 919.895a25.6 25.6 0 0 1-25.6 25.6H202.24a25.6 25.6 0 0 1-25.6-25.6v-815.79a25.6 25.6 0 0 1 25.6-25.6h512l133.12 168.96v672.43z" fill="#FFFFFF" /><path d="M320 359.255a25.6 25.6 0 0 0-25.6 25.6v455.68a25.6 25.6 0 0 0 25.6 25.6h380.585a25.6 25.6 0 0 0 25.6-25.6v-455.68a25.6 25.6 0 0 0-25.6-25.6H320z m170.665 75.09h42.665V512h-42.665v-77.655z m-117.76 0h42.665V512h-42.665v-77.655z m42.67 352.43H372.91V709.12h42.665v77.655z m116.05 0H488.96V709.12h42.665v77.655z m119.465 0h-42.665V709.12h42.665v77.655z m0-156.585H372.905v-38.83H651.09v38.83z m0-118.19h-42.665v-77.655h42.665V512z" fill="#FFFFFF" /></svg>