<?xml version="1.0" standalone="no"?><!DOCTYPE svg PUBLIC "-//W3C//DTD SVG 1.1//EN" "http://www.w3.org/Graphics/SVG/1.1/DTD/svg11.dtd"><svg class="icon" width="200px" height="200.00px" viewBox="0 0 1024 1024" version="1.1" xmlns="http://www.w3.org/2000/svg"><path d="M430.08 153.6v276.48H153.6V204.8c0-28.16 23.04-51.2 51.2-51.2h225.28m51.2-51.2H204.8c-56.32 0-102.4 46.08-102.4 102.4v276.48h378.88V102.4zM430.08 593.92v276.48H204.8c-28.16 0-51.2-23.04-51.2-51.2v-225.28h276.48m51.2-51.2H102.4v276.48c0 56.32 46.08 102.4 102.4 102.4h276.48v-378.88zM819.2 153.6c28.16 0 51.2 23.04 51.2 51.2v225.28h-276.48V153.6h225.28m0-51.2h-276.48v378.88h378.88V204.8c0-56.32-46.08-102.4-102.4-102.4zM870.4 593.92v225.28c0 28.16-23.04 51.2-51.2 51.2h-225.28v-276.48h276.48m51.2-51.2h-378.88v378.88h276.48c56.32 0 102.4-46.08 102.4-102.4v-276.48z" fill="#2A2A38" /><path d="M274.432 829.44H271.36c-42.496 0-76.8-34.304-76.8-76.8v-56.32c0-14.336 11.264-25.6 25.6-25.6s25.6 11.264 25.6 25.6v56.32c0 14.336 11.264 25.6 25.6 25.6h3.072c14.336 0 25.6 11.264 25.6 25.6s-11.264 25.6-25.6 25.6z" fill="#2A2A38" /><path d="M356.352 803.328m-25.6 0a25.6 25.6 0 1 0 51.2 0 25.6 25.6 0 1 0-51.2 0Z" fill="#2A2A38" /></svg>