<?xml version="1.0" encoding="UTF-8"?>
<svg width="20px" height="20px" viewBox="0 0 20 20" version="1.1" xmlns="http://www.w3.org/2000/svg" xmlns:xlink="http://www.w3.org/1999/xlink">
    <!-- Generator: Sketch 61 (89581) - https://sketch.com -->
    <title>alipay</title>
    <desc>Created with Sketch.</desc>
    <g id="页面-2" stroke="none" stroke-width="1" fill="none" fill-rule="evenodd">
        <g id="Apple-TV备份-5" transform="translate(-374.000000, -501.000000)" fill="#007BFC" fill-rule="nonzero">
            <path d="M384.001208,520.99999 C379.588269,520.99999 375.696905,518.107722 374.425087,513.882026 C373.15327,509.65633 374.801713,505.096537 378.48168,502.660995 C382.161648,500.225452 387.00304,500.490027 390.395688,503.312076 C393.788337,506.134126 394.930075,510.846398 393.205352,514.908338 C392.262854,514.538339 389.014529,513.265842 386.718701,512.445011 C387.344223,511.319223 387.796522,510.1056 388.060365,508.84502 L384.822039,508.84502 L384.822039,507.550023 L388.870363,507.550023 L388.870363,506.901692 L384.822039,506.901692 L384.822039,505.282529 L383.365376,505.282529 C383.066211,505.282529 383.041211,505.442529 383.041211,505.606695 L383.041211,506.901692 L379.31622,506.901692 L379.31622,507.550023 L383.040377,507.550023 L383.040377,508.84502 L379.964552,508.84502 L379.964552,509.493352 L385.95537,509.493352 L385.951203,509.512518 C385.744213,510.315937 385.471058,511.100838 385.134539,511.859179 C383.808401,511.34981 382.41681,511.030811 381.001216,510.911682 L380.942882,510.911682 C379.901443,510.856893 378.879667,511.21024 378.094556,511.896679 C377.737855,512.242695 377.497842,512.691264 377.407891,513.180009 C377.377053,513.334649 377.365853,513.492563 377.374558,513.650008 C377.369874,513.734721 377.371266,513.81966 377.378725,513.904174 C377.387478,514.024511 377.409272,514.143542 377.443725,514.259173 C377.479263,514.390692 377.529291,514.517859 377.592891,514.638339 L377.584558,514.617506 L377.567891,514.583339 C377.710873,514.852173 377.889423,515.100517 378.098723,515.321671 C378.578982,515.804278 379.195509,516.128245 379.865385,516.250002 C380.137117,516.305758 380.413823,516.33368 380.691216,516.333335 C381.25439,516.323867 381.813124,516.231774 382.349546,516.060002 C383.690274,515.618221 384.884523,514.817924 385.80287,513.745841 C387.609532,514.627506 390.522859,516.074169 392.099521,516.8575 C391.185221,518.115679 389.993271,519.146231 388.616197,519.869159 C387.191063,520.611407 385.608049,520.999299 384.001208,520.99999 Z M380.369551,515.402504 C380.302884,515.402504 380.236218,515.402504 380.171218,515.395004 C379.50729,515.3491 378.877789,515.082457 378.382889,514.637506 C377.98361,514.226696 377.816824,513.643101 377.938723,513.083343 C378.028445,512.754425 378.226663,512.465468 378.501222,512.263345 C379.053547,511.995563 379.65827,511.853276 380.272051,511.846679 C380.342051,511.846679 380.413717,511.842513 380.48455,511.842513 C381.875598,511.921607 383.227343,512.333418 384.426207,513.043343 C384.040417,513.56482 383.576655,514.023804 383.051211,514.404173 C382.272618,514.98917 381.341146,515.335939 380.369551,515.402504 L380.369551,515.402504 Z" id="alipay"></path>
        </g>
    </g>
</svg>