<?xml version="1.0" encoding="UTF-8"?>
<svg width="20px" height="20px" viewBox="0 0 20 20" version="1.1" xmlns="http://www.w3.org/2000/svg" xmlns:xlink="http://www.w3.org/1999/xlink">
    <!-- Generator: Sketch 61 (89581) - https://sketch.com -->
    <title>bitcoin</title>
    <desc>Created with Sketch.</desc>
    <g id="页面-2" stroke="none" stroke-width="1" fill="none" fill-rule="evenodd">
        <g id="Apple-TV备份-5" transform="translate(-820.000000, -501.000000)" fill="#FFB11A" fill-rule="nonzero">
            <path d="M830,501 C835.522847,501 840,505.477153 840,511 C840,516.522847 835.522847,521 830,521 C824.477153,521 820,516.522847 820,511 C820,505.477153 824.477153,501 830,501 Z M829.033846,506 L828.466154,506 C828.373846,506 828.296923,506.076923 828.296923,506.169231 L828.296923,507.818462 L826.42,507.818462 C826.326536,507.818462 826.250769,507.894229 826.250769,507.987692 L826.250769,508.563077 C826.250769,508.650769 826.315385,508.726154 826.403077,508.733846 C827.043077,508.793846 827.387692,509.223077 827.387692,509.749231 L827.387692,513.273846 C827.387692,513.749231 827.141538,514.126154 826.606154,514.176923 C826.529335,514.182682 826.466098,514.239595 826.452308,514.315385 L826.344615,514.893846 C826.335529,514.94297 826.348613,514.993599 826.38036,515.032171 C826.412108,515.070743 826.459276,515.093317 826.509231,515.093846 L828.293846,515.093846 L828.293846,516.74 C828.293846,516.835385 828.370769,516.910769 828.466154,516.910769 L829.033846,516.910769 C829.127692,516.910769 829.203077,516.833846 829.203077,516.741538 L829.203077,515.092308 L830.113846,515.092308 L830.113846,516.741538 C830.113846,516.833846 830.190769,516.910769 830.283077,516.910769 L830.852308,516.910769 C830.944615,516.910769 831.021538,516.833846 831.021538,516.741538 L831.021538,515.092308 L831.790769,515.092308 C832.872308,515.092308 833.750769,514.152308 833.750769,512.990769 C833.750769,512.266154 833.409231,511.626154 832.889231,511.249231 C833.144615,510.889231 833.296923,510.438462 833.296923,509.949231 C833.296923,508.772308 832.42,507.818462 831.335385,507.818462 L831.023077,507.818462 L831.023077,506.170769 C831.023077,506.076923 830.946154,506 830.853846,506 L830.284615,506 C830.190769,506 830.115385,506.076923 830.115385,506.169231 L830.115385,507.818462 L829.204615,507.818462 L829.204615,506.170769 C829.204615,506.076923 829.127692,506 829.035385,506 L829.033846,506 Z M831.050769,511.910769 C831.394834,511.89683 831.7189,512.072442 831.895083,512.368304 C832.071266,512.664167 832.071266,513.032756 831.895083,513.328619 C831.7189,513.624481 831.394834,513.800093 831.050769,513.786154 L829.204615,513.786154 L829.204615,511.907692 L831.050769,511.907692 L831.050769,511.910769 Z M830.596923,509.181538 C831.115221,509.181538 831.535385,509.601702 831.535385,510.12 C831.535385,510.638298 831.115221,511.058462 830.596923,511.058462 L829.204615,511.058462 L829.204615,509.181538 L830.596923,509.181538 L830.596923,509.181538 Z" id="bitcoin"></path>
        </g>
    </g>
</svg>