<?xml version="1.0" encoding="UTF-8"?>
<svg width="20px" height="20px" viewBox="0 0 20 20" version="1.1" xmlns="http://www.w3.org/2000/svg" xmlns:xlink="http://www.w3.org/1999/xlink">
    <!-- Generator: Sketch 61 (89581) - https://sketch.com -->
    <title>paypal</title>
    <desc>Created with Sketch.</desc>
    <g id="页面-2" stroke="none" stroke-width="1" fill="none" fill-rule="evenodd">
        <g id="Apple-TV备份-5" transform="translate(-669.000000, -501.000000)" fill-rule="nonzero">
            <g id="paypal" transform="translate(669.000000, 501.000000)">
                <path d="M8.458,4.706 L15.204,4.706 C18.826,4.706 20.1893333,6.23866666 19.9793333,8.49533334 C19.6326667,12.2153333 16.9433333,14.272 13.3766667,14.272 L11.5766667,14.272 C11.0886667,14.272 10.7593333,14.5426667 10.6253333,15.2766667 L9.85266666,19.54 C9.80333332,19.816 9.62933332,19.98 9.36733334,20 L5.136,20 C4.73733334,20 4.596,19.7453333 4.69933334,19.1933333 L7.28266666,5.51466666 C7.386,4.966 7.746,4.706 8.458,4.706 Z" id="路径" fill="#009DE2"></path>
                <path d="M4.334,0 L10.9966667,0 C12.874,0 15.0986667,0.0506666602 16.5873333,1.15866666 C17.5806667,1.89866666 18.1026667,3.07733332 17.9833333,4.34333334 C17.5726667,8.63466668 14.5306667,11.038 10.4506667,11.038 L7.16666666,11.038 C6.608,11.038 6.23666666,11.35 6.08,12.1973333 L5.16333334,17.1173333 C5.10333334,17.4366667 4.94,17.6253333 4.64,17.6473333 L0.53466666,17.6473333 C0.08,17.6473333 -0.0813333398,17.3526667 0.038,16.718 L2.99133334,0.93266666 C3.108,0.302 3.51933334,0 4.33333334,0 L4.334,0 Z" id="路径" fill="#113984"></path>
                <path d="M6,11.7646667 L7.19733334,5.51533334 C7.302,4.96666668 7.66533334,4.706 8.39,4.706 L15.2326667,4.706 C16.366,4.706 17.282,4.85266666 18,5.12133334 C17.3113333,8.96266668 14.3013333,11.0986667 10.3573333,11.0986667 L6.97733334,11.0986667 C6.53133334,11.0966667 6.2,11.2846667 6,11.7653333 L6,11.7646667 Z" id="路径" fill="#172C70"></path>
            </g>
        </g>
    </g>
</svg>