<?xml version="1.0" encoding="UTF-8"?>
<svg width="21px" height="20px" viewBox="0 0 21 20" version="1.1" xmlns="http://www.w3.org/2000/svg" xmlns:xlink="http://www.w3.org/1999/xlink">
    <!-- Generator: Sketch 61 (89581) - https://sketch.com -->
    <title>stamps</title>
    <desc>Created with Sketch.</desc>
    <g id="页面-2" stroke="none" stroke-width="1" fill="none" fill-rule="evenodd">
        <g id="Apple-TV备份-5" transform="translate(-1117.000000, -501.000000)" fill="#C75E2D" fill-rule="nonzero">
            <path d="M1136.49901,508.10822 L1134.98233,506.53409 C1134.85594,506.39621 1134.66061,506.31578 1134.47677,506.31578 C1134.29293,506.32727 1134.0976,506.38472 1133.97121,506.5226 C1133.32777,507.14306 1132.23622,507.13157 1131.60427,506.49962 C1131.29404,506.1779 1131.12169,505.75277 1131.13318,505.31615 C1131.14467,504.87953 1131.31702,504.4544 1131.63874,504.14417 C1131.92599,503.86841 1131.92599,503.4203 1131.65023,503.13305 L1130.13355,501.54743 C1129.43266,500.83505 1128.20323,500.81207 1127.47936,501.51296 L1117.56349,511.2335 C1117.2073,511.5782 1117.00048,512.04929 1117.00048,512.55485 C1116.98899,513.06041 1117.18432,513.5315 1117.52902,513.88769 L1119.0457,515.45033 C1119.17209,515.58821 1119.36742,515.66864 1119.55126,515.66864 C1119.71212,515.66864 1119.91894,515.5997 1120.05682,515.46182 C1120.68877,514.84136 1121.79181,514.85285 1122.41227,515.49629 C1122.7225,515.81801 1122.89485,516.24314 1122.88336,516.67976 C1122.87187,517.12787 1122.69952,517.54151 1122.3778,517.85174 C1122.09055,518.1275 1122.09055,518.57561 1122.36631,518.86286 L1123.89448,520.43699 C1124.25067,520.80467 1124.72176,521 1125.23881,521 C1125.73288,521 1126.19248,520.81616 1126.54867,520.45997 L1136.46454,510.73943 C1136.82073,510.39473 1137.02755,509.92364 1137.02755,509.41808 C1137.03904,508.9355 1136.8552,508.45292 1136.49901,508.10822 Z M1123.53829,512.64677 C1123.35445,512.64677 1123.17061,512.57783 1123.03273,512.42846 C1122.75697,512.1527 1122.75697,511.6931 1123.03273,511.41734 L1127.03125,507.41882 C1127.30701,507.14306 1127.76661,507.14306 1128.04237,507.41882 C1128.31813,507.69458 1128.31813,508.15418 1128.04237,508.42994 L1124.04385,512.42846 C1123.90597,512.57783 1123.73362,512.64677 1123.53829,512.64677 L1123.53829,512.64677 Z M1130.191,510.57857 L1126.19248,514.57709 C1126.0546,514.71497 1125.87076,514.78391 1125.68692,514.78391 C1125.50308,514.78391 1125.31924,514.71497 1125.18136,514.5656 C1124.9056,514.28984 1124.9056,513.83024 1125.18136,513.55448 L1129.17988,509.55596 C1129.45564,509.2802 1129.91524,509.2802 1130.191,509.55596 C1130.4668,509.841042 1130.4668,510.293489 1130.191,510.57857 L1130.191,510.57857 Z" id="stamps"></path>
        </g>
    </g>
</svg>