<?xml version="1.0" encoding="UTF-8"?>
<svg width="20px" height="20px" viewBox="0 0 20 20" version="1.1" xmlns="http://www.w3.org/2000/svg" xmlns:xlink="http://www.w3.org/1999/xlink">
    <!-- Generator: Sketch 61 (89581) - https://sketch.com -->
    <title>wxpay</title>
    <desc>Created with Sketch.</desc>
    <g id="页面-2" stroke="none" stroke-width="1" fill="none" fill-rule="evenodd">
        <g id="Apple-TV备份-5" transform="translate(-513.000000, -501.000000)" fill="#42B65F" fill-rule="nonzero">
            <path d="M520.624646,513.593746 C519.427537,514.316852 519.249979,513.187965 519.249979,513.187965 L517.749784,509.395974 C517.17244,507.593982 518.249315,508.583533 518.249315,508.583533 C518.249315,508.583533 519.173319,509.340642 519.874646,509.80197 C520.575545,510.263532 521.374431,509.937517 521.374431,509.937517 L531.182612,505.033788 C529.372847,502.594668 526.383727,501 522.999509,501 C517.476659,501 513,505.243983 513,510.479529 C513,513.491305 514.482226,516.171285 516.791327,517.908394 L516.374882,520.501283 C516.374882,520.501283 516.171757,521.258178 516.875331,520.907065 C517.354647,520.667944 518.576659,519.809721 519.304197,519.288178 C520.485507,519.733186 521.737649,519.960553 523,519.959272 C528.522417,519.959272 532.999975,515.715289 532.999975,510.479743 C532.999975,508.963318 532.622631,507.531111 531.954409,506.259764 C528.829292,508.296209 521.561091,513.029098 520.624646,513.593746 Z" id="wxpay"></path>
        </g>
    </g>
</svg>